# xmcd
#
# Track frame offsets:
#	150
#	9007
#	21195
#	31535
#	41673
#	55137
#	65132
#	77583
#	88492
#	98296
#	108939
#	121555
#	134946
#	147222
#	157975
#	171122
#	181947
#	193175
#	205172
#	218948
#	229252
#	240718
#	250733
#	261055
#	272607
#
# Disc length: 3794 seconds
#
# Revision: 1
# Processed by: cddbd v1.5.2PL0 Copyright (c) Steve Scherf et al.
# Submitted via: audiograbber 1.83.01
#
DISCID=500ed019
DTITLE=Various Artist - Louisiana Swamp Blues 2 CD C
DYEAR=2017
DGENRE=Blues
TTITLE0=Leroy Washington - Don't Blame It On Me Mama
TTITLE1=Lonesome Sundown - Lonesome Whistler
TTITLE2=Schoolboy Cleve - My Baby Done Gone
TTITLE3=Pete McKinley - Looka Here Boy
TTITLE4=Ivory Lee Jackson - Don't Think I Can Make It
TTITLE5=Clarence Locksley - I Ain't Got No Money
TTITLE6=Lightnin' Slim - Rocky Mountain Blues
TTITLE7=Boo Breeding - Country Woman
TTITLE8=Tal Miller - What You Did Last Night
TTITLE9=Louis Cormier - Drunkard's Blues
TTITLE10=Charles Sheffield - Clear My Nights Of Misery
TTITLE11=Leroy Washington - Hello Stranger
TTITLE12=Clarence Garlow - Sunday Morning
TTITLE13=Lonesome Sundwon - Don't Go
TTITLE14=Boo Breeding - I Can't Fly (Date With An Angel)
TTITLE15=Guitar Jr.  - Now You Know
TTITLE16=Pete McKinley - David's Boogie
TTITLE17=Lightnin' Slim - Farming Blues
TTITLE18=Schoolboy Cleve - Beautiful, Beautiful Love
TTITLE19=Nathan Abshire - Cannon Ball Special
TTITLE20=Cookie and The Cupcakes - Until Then
TTITLE21=Nolan Pitts - Way In The Middle Of The Night
TTITLE22=Clarence Garlow - Foggy Blues
TTITLE23=Al Smith - You Wanna Do Me Wrong
TTITLE24=Tabby Thomas - Hoodoo Party
EXTD=
EXTT0=
EXTT1=
EXTT2=
EXTT3=
EXTT4=
EXTT5=
EXTT6=
EXTT7=
EXTT8=
EXTT9=
EXTT10=
EXTT11=
EXTT12=
EXTT13=
EXTT14=
EXTT15=
EXTT16=
EXTT17=
EXTT18=
EXTT19=
EXTT20=
EXTT21=
EXTT22=
EXTT23=
EXTT24=
PLAYORDER=
